<?xml version="1.0" encoding="UTF-8" standalone="no"?><svg width="166" height="166" version="1.1" xmlns="http://www.w3.org/2000/svg" xmlns:xlink="http://www.w3.org/1999/xlink"><circle cx="83" cy="53" r="4.1875" fill="#01a6ca"></circle><circle cx="94.4805029709527" cy="55.2836140246614" r="4.625" fill="#01a6ca"></circle><circle cx="104.21320343559643" cy="61.78679656440357" r="5.0625" fill="#01a6ca"></circle><circle cx="110.7163859753386" cy="71.5194970290473" r="2" fill="#e6eaef"></circle><circle cx="113" cy="83" r="2.4375" fill="#e6eaef"></circle><circle cx="110.7163859753386" cy="94.4805029709527" r="2.875" fill="#e6eaef"></circle><circle cx="104.21320343559643" cy="104.21320343559643" r="3.3125" fill="#e6eaef"></circle><circle cx="94.4805029709527" cy="110.7163859753386" r="3.75" fill="#e6eaef"></circle><circle cx="83" cy="113" r="4.1875" fill="#e6eaef"></circle><circle cx="71.51949702904732" cy="110.71638597533861" r="4.625" fill="#e6eaef"></circle><circle cx="61.78679656440357" cy="104.21320343559643" r="5.0625" fill="#e6eaef"></circle><circle cx="55.283614024661404" cy="94.48050297095271" r="2" fill="#01a6ca"></circle><circle cx="53" cy="83" r="2.4375" fill="#01a6ca"></circle><circle cx="55.283614024661404" cy="71.5194970290473" r="2.875" fill="#01a6ca"></circle><circle cx="61.78679656440357" cy="61.78679656440358" r="3.3125" fill="#01a6ca"></circle><circle cx="71.51949702904729" cy="55.283614024661404" r="3.75" fill="#01a6ca"></circle><circle cx="83" cy="36" r="8.6875" fill="#01a6ca"></circle><circle cx="100.98612132115922" cy="39.577661971969526" r="3" fill="#e6eaef"></circle><circle cx="116.23401871576773" cy="49.76598128423226" r="3.8125" fill="#e6eaef"></circle><circle cx="126.42233802803048" cy="65.01387867884078" r="4.625" fill="#e6eaef"></circle><circle cx="130" cy="83" r="5.4375" fill="#e6eaef"></circle><circle cx="126.42233802803048" cy="100.98612132115922" r="6.25" fill="#e6eaef"></circle><circle cx="116.23401871576775" cy="116.23401871576773" r="7.0625" fill="#e6eaef"></circle><circle cx="100.98612132115923" cy="126.42233802803048" r="7.875" fill="#e6eaef"></circle><circle cx="83" cy="130" r="8.6875" fill="#e6eaef"></circle><circle cx="65.01387867884078" cy="126.42233802803048" r="3" fill="#01a6ca"></circle><circle cx="49.76598128423227" cy="116.23401871576775" r="3.8125" fill="#01a6ca"></circle><circle cx="39.57766197196953" cy="100.98612132115925" r="4.625" fill="#01a6ca"></circle><circle cx="36" cy="83.00000000000001" r="5.4375" fill="#01a6ca"></circle><circle cx="39.577661971969526" cy="65.01387867884077" r="6.25" fill="#01a6ca"></circle><circle cx="49.76598128423226" cy="49.765981284232275" r="7.0625" fill="#01a6ca"></circle><circle cx="65.01387867884075" cy="39.57766197196953" r="7.875" fill="#01a6ca"></circle><circle cx="83" cy="13" r="4.6875" fill="#e6eaef"></circle><circle cx="109.78784026555628" cy="18.328432724209932" r="5.875" fill="#e6eaef"></circle><circle cx="132.49747468305833" cy="33.50252531694167" r="7.0625" fill="#e6eaef"></circle><circle cx="147.67156727579007" cy="56.212159734443716" r="8.25" fill="#e6eaef"></circle><circle cx="153" cy="83" r="9.4375" fill="#e6eaef"></circle><circle cx="147.67156727579007" cy="109.78784026555628" r="10.625" fill="#e6eaef"></circle><circle cx="132.49747468305833" cy="132.49747468305833" r="11.8125" fill="#e6eaef"></circle><circle cx="109.7878402655563" cy="147.67156727579007" r="3.5" fill="#01a6ca"></circle><circle cx="83.00000000000001" cy="153" r="4.6875" fill="#01a6ca"></circle><circle cx="56.21215973444372" cy="147.6715672757901" r="5.875" fill="#01a6ca"></circle><circle cx="33.50252531694168" cy="132.49747468305833" r="7.0625" fill="#01a6ca"></circle><circle cx="18.328432724209947" cy="109.78784026555633" r="8.25" fill="#01a6ca"></circle><circle cx="13" cy="83.00000000000001" r="9.4375" fill="#01a6ca"></circle><circle cx="18.328432724209932" cy="56.2121597344437" r="10.625" fill="#01a6ca"></circle><circle cx="33.502525316941664" cy="33.502525316941686" r="11.8125" fill="#01a6ca"></circle><circle cx="56.212159734443674" cy="18.328432724209947" r="3.5" fill="#e6eaef"></circle></svg>